<svg width="174" height="27" viewBox="0 0 174 27" fill="none" xmlns="http://www.w3.org/2000/svg">
<path fill-rule="evenodd" clip-rule="evenodd" d="M18.2063 2H11.0392V8.25316C11.0392 8.5097 10.943 8.73418 10.7506 8.92658C10.5903 9.11899 10.3819 9.21519 10.1253 9.21519H7.96076C7.70422 9.21519 7.47975 9.11899 7.28734 8.92658C7.127 8.73418 7.04683 8.5097 7.04683 8.25316V2H0V7.48354C0 11.7165 0.829747 16.2019 6.5538 17.0316C7.77729 17.209 9.01593 17.2052 10.3251 17.2012C10.5214 17.2006 10.7193 17.2 10.919 17.2V26.1709L18.1582 26.1709H28.6202C34.5126 26.1709 38 23.345 38 17.2121C38 12.5823 36.3164 11.3798 31.5063 8.55386L30.3038 7.89247C28.4158 6.82086 28.5198 4.49346 28.5945 2.82127C28.6078 2.52306 28.6202 2.24569 28.6202 2L20.6234 2.00001C20.6234 2.52946 20.6135 3.03972 20.6038 3.53327C20.5249 7.57976 20.468 10.5028 26.0949 13.6646L27.6582 14.5665C28.0479 14.7799 28.3903 14.9604 28.6908 15.1188C30.3377 15.9866 30.7247 16.1906 30.7247 17.5127C30.7247 19.076 30.0032 19.9779 27.7785 19.9779H18.2063V2Z" fill="#500A87"/>
<path d="M57.4016 5.32V7.36H63.9296V5.32H57.4016ZM57.4016 10.6V12.64H63.9296V10.6H57.4016ZM63.0176 2.08V18.208H65.5376V2.08H63.0176ZM51.3296 21.52V23.56H66.0896V21.52H51.3296ZM51.3296 16.576V22.504H53.8256V16.576H51.3296ZM53.3696 3.424C50.1296 3.424 47.6576 5.728 47.6576 8.992C47.6576 12.232 50.1296 14.56 53.3696 14.56C56.6096 14.56 59.0816 12.232 59.0816 8.992C59.0816 5.728 56.6096 3.424 53.3696 3.424ZM53.3696 5.632C55.2656 5.632 56.6816 6.976 56.6816 8.992C56.6816 11.008 55.2656 12.352 53.3696 12.352C51.4736 12.352 50.0576 11.008 50.0576 8.992C50.0576 6.976 51.4736 5.632 53.3696 5.632ZM77.0638 9.688V11.752H81.0238V9.688H77.0638ZM72.7198 4.048V8.008C72.7198 11.752 71.2078 15.664 68.1118 17.536L69.6478 19.432C72.9838 17.392 74.6638 12.76 74.6638 8.008V4.048H72.7198ZM73.2478 4.048V7.912C73.2478 12.376 74.7118 16.912 77.9998 18.952L79.4158 16.984C76.4878 15.136 75.1438 11.44 75.1438 7.912V4.048H73.2478ZM84.7678 2.056V23.992H87.1678V2.056H84.7678ZM80.3038 2.464V22.936H82.6558V2.464H80.3038ZM104.094 2.056V17.944H106.638V2.056H104.094ZM105.894 8.464V10.552H109.734V8.464H105.894ZM98.0699 3.736V4.912C98.0699 8.8 94.9019 11.992 89.4539 13.6L90.5099 15.616C96.9179 13.672 100.734 9.52 100.734 3.736H98.0699ZM90.3659 3.736V5.776H99.3899V3.736H90.3659ZM92.7419 21.52V23.56H107.502V21.52H92.7419ZM92.7419 16.336V22.384H95.2619V16.336H92.7419ZM111.516 5.056V7.072H129.444V5.056H111.516ZM110.604 19.552V21.592H130.476V19.552H110.604ZM119.244 16.312V20.344H121.74V16.312H119.244ZM120.468 8.32C115.98 8.32 113.196 9.88 113.196 12.544C113.196 15.208 115.98 16.768 120.468 16.768C124.956 16.768 127.764 15.208 127.764 12.544C127.764 9.88 124.956 8.32 120.468 8.32ZM120.468 10.288C123.468 10.288 125.196 11.08 125.196 12.544C125.196 14.008 123.468 14.776 120.468 14.776C117.468 14.776 115.74 14.008 115.74 12.544C115.74 11.08 117.468 10.288 120.468 10.288ZM119.244 2.368V6.304H121.74V2.368H119.244ZM131.706 4.192V6.208H144.618V4.192H131.706ZM138.162 7.144C135.018 7.144 132.834 8.728 132.834 11.152C132.834 13.552 135.018 15.112 138.162 15.112C141.306 15.112 143.466 13.552 143.466 11.152C143.466 8.728 141.306 7.144 138.162 7.144ZM138.162 9.064C139.89 9.064 141.066 9.832 141.066 11.152C141.066 12.424 139.89 13.216 138.162 13.216C136.434 13.216 135.258 12.424 135.258 11.152C135.258 9.832 136.434 9.064 138.162 9.064ZM146.274 2.056V15.784H148.794V2.056H146.274ZM148.098 7.936V10H151.89V7.936H148.098ZM134.37 16.864V18.88H146.274V23.992H148.794V16.864H134.37ZM136.914 1.936V5.344H139.41V1.936H136.914ZM158.736 13.192V18.04H161.256V13.192H158.736ZM168.408 2.056V18.712H170.928V2.056H168.408ZM155.592 21.52V23.56H171.432V21.52H155.592ZM155.592 17.104V22.072H158.112V17.104H155.592ZM152.976 14.032C156.936 14.032 162.168 13.936 166.872 13.168L166.704 11.344C162.072 11.944 156.672 11.992 152.64 11.992L152.976 14.032ZM164.088 14.92V16.696H169.008V14.92H164.088ZM159.744 2.896C156.528 2.896 154.32 4.432 154.32 6.76C154.32 9.088 156.528 10.6 159.744 10.6C162.936 10.6 165.168 9.088 165.168 6.76C165.168 4.432 162.936 2.896 159.744 2.896ZM159.744 4.744C161.52 4.744 162.768 5.488 162.768 6.76C162.768 8.008 161.52 8.752 159.744 8.752C157.944 8.752 156.696 8.008 156.696 6.76C156.696 5.488 157.944 4.744 159.744 4.744Z" fill="black"/>
</svg>
