<svg width="173" height="27" viewBox="0 0 173 27" fill="none" xmlns="http://www.w3.org/2000/svg">
<path fill-rule="evenodd" clip-rule="evenodd" d="M18.2063 2H11.0392V8.25316C11.0392 8.5097 10.943 8.73418 10.7506 8.92658C10.5903 9.11899 10.3819 9.21519 10.1253 9.21519H7.96076C7.70422 9.21519 7.47975 9.11899 7.28734 8.92658C7.127 8.73418 7.04683 8.5097 7.04683 8.25316V2H0V7.48354C0 11.7165 0.829747 16.2019 6.5538 17.0316C7.77729 17.209 9.01593 17.2052 10.3251 17.2012C10.5214 17.2006 10.7193 17.2 10.919 17.2V26.1709L18.1582 26.1709H28.6202C34.5126 26.1709 38 23.345 38 17.2121C38 12.5823 36.3164 11.3798 31.5063 8.55386L30.3038 7.89247C28.4158 6.82086 28.5198 4.49346 28.5945 2.82127C28.6078 2.52306 28.6202 2.24569 28.6202 2L20.6234 2.00001C20.6234 2.52946 20.6135 3.03972 20.6038 3.53327C20.5249 7.57976 20.468 10.5028 26.0949 13.6646L27.6582 14.5665C28.0479 14.7799 28.3903 14.9604 28.6908 15.1188C30.3377 15.9866 30.7247 16.1906 30.7247 17.5127C30.7247 19.076 30.0032 19.9779 27.7785 19.9779H18.2063V2Z" fill="#500A87"/>
<path d="M56.4016 5.32V7.36H62.9296V5.32H56.4016ZM56.4016 10.6V12.64H62.9296V10.6H56.4016ZM62.0176 2.08V18.208H64.5376V2.08H62.0176ZM50.3296 21.52V23.56H65.0896V21.52H50.3296ZM50.3296 16.576V22.504H52.8256V16.576H50.3296ZM52.3696 3.424C49.1296 3.424 46.6576 5.728 46.6576 8.992C46.6576 12.232 49.1296 14.56 52.3696 14.56C55.6096 14.56 58.0816 12.232 58.0816 8.992C58.0816 5.728 55.6096 3.424 52.3696 3.424ZM52.3696 5.632C54.2656 5.632 55.6816 6.976 55.6816 8.992C55.6816 11.008 54.2656 12.352 52.3696 12.352C50.4736 12.352 49.0576 11.008 49.0576 8.992C49.0576 6.976 50.4736 5.632 52.3696 5.632ZM76.0638 9.688V11.752H80.0238V9.688H76.0638ZM71.7198 4.048V8.008C71.7198 11.752 70.2078 15.664 67.1118 17.536L68.6478 19.432C71.9838 17.392 73.6638 12.76 73.6638 8.008V4.048H71.7198ZM72.2478 4.048V7.912C72.2478 12.376 73.7118 16.912 76.9998 18.952L78.4158 16.984C75.4878 15.136 74.1438 11.44 74.1438 7.912V4.048H72.2478ZM83.7678 2.056V23.992H86.1678V2.056H83.7678ZM79.3038 2.464V22.936H81.6558V2.464H79.3038ZM103.094 2.056V17.944H105.638V2.056H103.094ZM104.894 8.464V10.552H108.734V8.464H104.894ZM97.0699 3.736V4.912C97.0699 8.8 93.9019 11.992 88.4539 13.6L89.5099 15.616C95.9179 13.672 99.7339 9.52 99.7339 3.736H97.0699ZM89.3659 3.736V5.776H98.3899V3.736H89.3659ZM91.7419 21.52V23.56H106.502V21.52H91.7419ZM91.7419 16.336V22.384H94.2619V16.336H91.7419ZM110.516 5.056V7.072H128.444V5.056H110.516ZM109.604 19.552V21.592H129.476V19.552H109.604ZM118.244 16.312V20.344H120.74V16.312H118.244ZM119.468 8.32C114.98 8.32 112.196 9.88 112.196 12.544C112.196 15.208 114.98 16.768 119.468 16.768C123.956 16.768 126.764 15.208 126.764 12.544C126.764 9.88 123.956 8.32 119.468 8.32ZM119.468 10.288C122.468 10.288 124.196 11.08 124.196 12.544C124.196 14.008 122.468 14.776 119.468 14.776C116.468 14.776 114.74 14.008 114.74 12.544C114.74 11.08 116.468 10.288 119.468 10.288ZM118.244 2.368V6.304H120.74V2.368H118.244ZM130.706 4.192V6.208H143.618V4.192H130.706ZM137.162 7.144C134.018 7.144 131.834 8.728 131.834 11.152C131.834 13.552 134.018 15.112 137.162 15.112C140.306 15.112 142.466 13.552 142.466 11.152C142.466 8.728 140.306 7.144 137.162 7.144ZM137.162 9.064C138.89 9.064 140.066 9.832 140.066 11.152C140.066 12.424 138.89 13.216 137.162 13.216C135.434 13.216 134.258 12.424 134.258 11.152C134.258 9.832 135.434 9.064 137.162 9.064ZM145.274 2.056V15.784H147.794V2.056H145.274ZM147.098 7.936V10H150.89V7.936H147.098ZM133.37 16.864V18.88H145.274V23.992H147.794V16.864H133.37ZM135.914 1.936V5.344H138.41V1.936H135.914ZM157.736 13.192V18.04H160.256V13.192H157.736ZM167.408 2.056V18.712H169.928V2.056H167.408ZM154.592 21.52V23.56H170.432V21.52H154.592ZM154.592 17.104V22.072H157.112V17.104H154.592ZM151.976 14.032C155.936 14.032 161.168 13.936 165.872 13.168L165.704 11.344C161.072 11.944 155.672 11.992 151.64 11.992L151.976 14.032ZM163.088 14.92V16.696H168.008V14.92H163.088ZM158.744 2.896C155.528 2.896 153.32 4.432 153.32 6.76C153.32 9.088 155.528 10.6 158.744 10.6C161.936 10.6 164.168 9.088 164.168 6.76C164.168 4.432 161.936 2.896 158.744 2.896ZM158.744 4.744C160.52 4.744 161.768 5.488 161.768 6.76C161.768 8.008 160.52 8.752 158.744 8.752C156.944 8.752 155.696 8.008 155.696 6.76C155.696 5.488 156.944 4.744 158.744 4.744Z" fill="white"/>
</svg>
